M48
; DRILL file {KiCad (7.0.0)} date Thu Mar 16 10:25:25 2023
; FORMAT={-:-/ absolute / inch / decimal}
; #@! TF.CreationDate,2023-03-16T10:25:25-04:00
; #@! TF.GenerationSoftware,Kicad,Pcbnew,(7.0.0)
; #@! TF.FileFunction,Plated,1,2,PTH
FMAT,2
INCH
; #@! TA.AperFunction,Plated,PTH,ComponentDrill
T1C0.0394
; #@! TA.AperFunction,Plated,PTH,ComponentDrill
T2C0.0512
; #@! TA.AperFunction,Plated,PTH,ViaDrill
T3C0.1772
%
G90
G05
T1
X4.1Y-4.33
X4.1528Y-2.7809
X4.1528Y-2.8809
X4.1528Y-3.1059
X4.1528Y-3.2059
X4.1528Y-3.3059
X4.1528Y-3.5559
X4.1528Y-3.6559
X4.1528Y-3.7559
X4.1528Y-3.8559
X4.1528Y-4.0309
X4.1528Y-4.1309
X4.1567Y-2.4848
X4.1567Y-2.5848
X4.2Y-4.33
X4.3488Y-2.3348
X4.3528Y-2.4809
X4.3528Y-2.6309
X4.3528Y-2.7809
X4.3528Y-2.9309
X4.3528Y-3.0809
X4.3528Y-3.2309
X4.3528Y-3.3809
X4.3528Y-3.5309
X4.3528Y-3.6809
X4.3528Y-3.8309
X4.3528Y-3.9809
X4.3528Y-4.1309
X4.3528Y-4.2809
X4.3528Y-4.4309
X4.4488Y-2.3348
X4.4528Y-2.4809
X4.4528Y-2.6309
X4.4528Y-2.7809
X4.4528Y-2.9309
X4.4528Y-3.0809
X4.4528Y-3.2309
X4.4528Y-3.3809
X4.4528Y-3.5309
X4.4528Y-3.6809
X4.4528Y-3.8309
X4.4528Y-3.9809
X4.4528Y-4.1309
X4.4528Y-4.2809
X4.4528Y-4.4309
X4.66Y-2.735
X4.66Y-2.835
X4.66Y-2.935
X4.66Y-3.035
X4.66Y-3.135
X4.66Y-3.235
X4.66Y-3.335
X4.66Y-3.435
X4.66Y-3.535
X4.66Y-3.635
X4.66Y-3.735
X4.66Y-3.835
X4.66Y-3.935
X4.66Y-4.035
X4.66Y-4.135
X4.66Y-4.235
X4.66Y-4.335
X4.66Y-4.435
X4.66Y-4.535
X4.8339Y-2.4811
X4.9339Y-2.4811
X5.3861Y-2.4839
X5.4861Y-2.4839
X5.66Y-2.735
X5.66Y-2.835
X5.66Y-2.935
X5.66Y-3.035
X5.66Y-3.135
X5.66Y-3.235
X5.66Y-3.335
X5.66Y-3.435
X5.66Y-3.535
X5.66Y-3.635
X5.66Y-3.735
X5.66Y-3.835
X5.66Y-3.935
X5.66Y-4.035
X5.66Y-4.135
X5.66Y-4.235
X5.66Y-4.335
X5.66Y-4.435
X5.66Y-4.535
X5.7089Y-4.6831
X5.8089Y-2.1331
X5.8089Y-2.2331
X5.8089Y-2.3331
X5.8089Y-4.6831
X5.8339Y-2.5331
X5.8339Y-2.9331
X5.8339Y-3.2331
X5.8339Y-3.6331
X5.8339Y-4.0331
X5.8339Y-4.4331
X5.965Y-2.63
X5.965Y-2.73
X5.965Y-2.83
X5.965Y-3.3139
X5.965Y-3.4139
X5.965Y-3.5139
X5.965Y-4.1389
X5.965Y-4.2389
X5.965Y-4.3389
X6.015Y-2.155
X6.015Y-2.305
X6.08Y-3.81
X6.095Y-3.08
X6.115Y-2.155
X6.115Y-2.305
X6.265Y-2.63
X6.265Y-2.73
X6.265Y-2.83
X6.265Y-3.3139
X6.265Y-3.4139
X6.265Y-3.5139
X6.265Y-4.1389
X6.265Y-4.2389
X6.265Y-4.3389
X6.3589Y-4.0331
X6.3589Y-4.4331
X6.3839Y-2.5331
X6.3839Y-2.9331
X6.3839Y-3.2081
X6.3839Y-3.6081
X6.48Y-3.81
X6.495Y-3.08
X6.5128Y-2.6359
X6.5128Y-2.7359
X6.5339Y-3.5081
X6.5339Y-3.6081
X6.5339Y-4.4081
X6.5339Y-4.5081
X6.71Y-2.6374
X6.71Y-2.7374
X6.71Y-2.8374
X6.71Y-3.535
X6.71Y-3.635
X6.71Y-3.735
X6.71Y-4.435
X6.71Y-4.535
X6.71Y-4.635
T2
X4.7601Y-2.2055
X4.957Y-2.2055
X5.3101Y-2.2055
X5.507Y-2.2055
X6.7095Y-2.1901
X6.7095Y-2.387
X6.7095Y-3.095
X6.7095Y-3.2919
X6.7095Y-3.9981
X6.7095Y-4.195
T3
X4.1575Y-2.1575
X4.1575Y-4.5984
X6.0866Y-4.5984
X6.3622Y-2.1575
T0
M30
