G04*
G04 #@! TF.GenerationSoftware,Altium Limited,Altium Designer,20.1.11 (218)*
G04*
G04 Layer_Color=16711935*
%FSLAX24Y24*%
%MOIN*%
G70*
G04*
G04 #@! TF.SameCoordinates,6E5F219A-F95A-408D-A6A4-F8ABCC739CFB*
G04*
G04*
G04 #@! TF.FilePolarity,Positive*
G04*
G01*
G75*
%ADD12C,0.0100*%
D12*
X81750Y169500D02*
G03*
X83500Y167750I1708J-42D01*
G01*
X120000D02*
G03*
X121750Y169500I42J1708D01*
G01*
Y206000D02*
G03*
X120000Y207750I-1708J42D01*
G01*
X83500D02*
G03*
X81750Y206000I-42J-1708D01*
G01*
X83500Y207750D02*
X120000D01*
X89750Y161500D02*
X113750D01*
X83500Y167750D02*
X89750Y161500D01*
X113750D02*
X120000Y167750D01*
X121750Y169500D02*
Y206000D01*
X81750Y169500D02*
Y206000D01*
Y169500D02*
G03*
X83500Y167750I1708J-42D01*
G01*
X120000D02*
G03*
X121750Y169500I42J1708D01*
G01*
Y206000D02*
G03*
X120000Y207750I-1708J42D01*
G01*
X83500D02*
G03*
X81750Y206000I-42J-1708D01*
G01*
X83500Y207750D02*
X120000D01*
X89750Y161500D02*
X113750D01*
X83500Y167750D02*
X89750Y161500D01*
X113750D02*
X120000Y167750D01*
X121750Y169500D02*
Y206000D01*
X81750Y169500D02*
Y206000D01*
M02*
