%TF.GenerationSoftware,Altium Limited,Altium Designer,20.1.11 (218)*%
G04 Layer_Physical_Order=2*
G04 Layer_Color=16711680*
%FSLAX26Y26*%
%MOIN*%
%TF.SameCoordinates,1DCD3DB5-9A7A-439C-B071-390915EAFCA4*%
%TF.FilePolarity,Positive*%
%TF.FileFunction,Copper,L2,Bot,Signal*%
%TF.Part,Single*%
G01*
G75*
%TA.AperFunction,ViaPad*%
%ADD10C,0.060000*%
%TA.AperFunction,ComponentPad*%
%ADD11C,0.064961*%
%ADD12C,0.059055*%
%ADD13R,0.059055X0.059055*%
%ADD14R,0.059055X0.059055*%
%ADD15C,0.062992*%
%ADD16R,0.062992X0.062992*%
%ADD17R,0.064961X0.064961*%
%ADD18C,0.055118*%
%ADD19C,0.072047*%
%TA.AperFunction,Conductor*%
%ADD20C,0.010000*%
%ADD21C,0.050000*%
%TA.AperFunction,NonConductor*%
%ADD22C,0.010000*%
G36*
X3000000Y0D02*
X0D01*
Y3000000D01*
X3000000D01*
Y0D01*
D02*
G37*
%LPC*%
G36*
X1960000Y2947890D02*
X1947605Y2946258D01*
X1936055Y2941474D01*
X1926137Y2933863D01*
X1918526Y2923945D01*
X1913742Y2912395D01*
X1913500Y2910557D01*
X1561472Y2558528D01*
X1555060Y2550173D01*
X1551030Y2540442D01*
X1549655Y2530000D01*
X1549655Y2529999D01*
Y2483345D01*
X1034261D01*
X1033863Y2483863D01*
X1023945Y2491474D01*
X1012395Y2496258D01*
X1000000Y2497890D01*
X987605Y2496258D01*
X976055Y2491474D01*
X966137Y2483863D01*
X962861Y2479595D01*
X961472Y2478528D01*
X777472Y2294528D01*
X771060Y2286173D01*
X767029Y2276442D01*
X765655Y2266000D01*
X765655Y2265999D01*
Y2016001D01*
X765655Y2016000D01*
X767029Y2005558D01*
X771060Y1995827D01*
X777472Y1987472D01*
X801471Y1963472D01*
X801472Y1963472D01*
X809827Y1957060D01*
X819558Y1953030D01*
X830000Y1951655D01*
X1475288D01*
X1509655Y1917288D01*
Y1800416D01*
X1508526Y1798945D01*
X1503742Y1787395D01*
X1502110Y1775000D01*
X1503742Y1762605D01*
X1508526Y1751055D01*
X1509655Y1749584D01*
Y1616711D01*
X1389443Y1496500D01*
X1387605Y1496258D01*
X1376055Y1491474D01*
X1374584Y1490345D01*
X1240001D01*
X1240000Y1490345D01*
X1229558Y1488970D01*
X1219827Y1484940D01*
X1211472Y1478528D01*
X1211471Y1478528D01*
X1191472Y1458528D01*
X1185060Y1450173D01*
X1181030Y1440442D01*
X1179655Y1430000D01*
X1179655Y1429999D01*
Y790000D01*
X1179655Y789999D01*
X1181030Y779557D01*
X1185060Y769827D01*
X1191472Y761471D01*
X1353500Y599443D01*
X1353742Y597605D01*
X1358526Y586054D01*
X1366137Y576136D01*
X1376055Y568525D01*
X1387605Y563741D01*
X1400000Y562109D01*
X1412395Y563741D01*
X1423945Y568525D01*
X1425416Y569654D01*
X1688289D01*
X1748504Y509439D01*
Y473504D01*
X1841496D01*
X1844419Y469715D01*
Y364966D01*
X1429494D01*
X1419052Y363592D01*
X1409322Y359561D01*
X1405000Y356245D01*
Y309999D01*
Y267811D01*
X1411090Y268613D01*
X1421423Y272893D01*
X1430297Y279702D01*
X1433807Y284276D01*
X2273620D01*
X2273621Y284276D01*
X2284063Y285651D01*
X2293794Y289681D01*
X2302150Y296093D01*
X2332500Y326443D01*
X2349472Y309472D01*
X2357827Y303060D01*
X2367558Y299029D01*
X2378000Y297655D01*
X2455288D01*
X2500471Y252472D01*
X2500472Y252472D01*
X2508827Y246060D01*
X2518558Y242030D01*
X2529000Y240655D01*
X2774000D01*
X2784442Y242030D01*
X2794173Y246060D01*
X2800000Y250531D01*
Y297000D01*
X2810000D01*
Y254811D01*
X2816090Y255613D01*
X2826423Y259894D01*
X2835297Y266703D01*
X2842106Y275577D01*
X2845269Y283213D01*
X2978528Y416472D01*
X2984940Y424827D01*
X2988970Y434558D01*
X2990345Y445000D01*
X2990345Y445001D01*
Y1026999D01*
X2990345Y1027000D01*
X2988970Y1037442D01*
X2984940Y1047173D01*
X2978528Y1055528D01*
X2978528Y1055529D01*
X2930528Y1103528D01*
X2922173Y1109940D01*
X2912442Y1113970D01*
X2902000Y1115345D01*
X2891558Y1113970D01*
X2881827Y1109940D01*
X2873472Y1103528D01*
X2867060Y1095173D01*
X2865345Y1091033D01*
X2860345Y1092027D01*
Y1100000D01*
X2858970Y1110442D01*
X2854940Y1120173D01*
X2848528Y1128528D01*
X2848528Y1128529D01*
X2767294Y1209763D01*
X2766175Y1212463D01*
X2759353Y1221353D01*
X2750463Y1228175D01*
X2740110Y1232464D01*
X2729000Y1233926D01*
X2717890Y1232464D01*
X2707537Y1228175D01*
X2698647Y1221353D01*
X2691825Y1212463D01*
X2687537Y1202110D01*
X2686074Y1191000D01*
X2687537Y1179890D01*
X2691825Y1169537D01*
X2698647Y1160647D01*
X2707537Y1153825D01*
X2710237Y1152707D01*
X2779655Y1083289D01*
Y900416D01*
X2778526Y898945D01*
X2773742Y887395D01*
X2772110Y875000D01*
X2773742Y862605D01*
X2778526Y851055D01*
X2779655Y849584D01*
Y743981D01*
X2532000D01*
Y634000D01*
X2779655D01*
Y549178D01*
X2777540Y546423D01*
X2776736Y544480D01*
X2757520D01*
Y449520D01*
X2852480D01*
Y501858D01*
X2852825Y504480D01*
Y510841D01*
X2854940Y513597D01*
X2858970Y523328D01*
X2860345Y533770D01*
X2860345Y533770D01*
Y849584D01*
X2861474Y851055D01*
X2866258Y862605D01*
X2867890Y875000D01*
X2866258Y887395D01*
X2861474Y898945D01*
X2860345Y900416D01*
Y1057973D01*
X2865345Y1058967D01*
X2867060Y1054827D01*
X2868186Y1053360D01*
X2869192Y1050930D01*
X2875213Y1043085D01*
X2882287Y1037656D01*
X2909655Y1010288D01*
Y461712D01*
X2781472Y333528D01*
X2779536Y331006D01*
X2774703Y327297D01*
X2770135Y321345D01*
X2545711D01*
X2516297Y350759D01*
X2515808Y351942D01*
X2515185Y352754D01*
X2512940Y358173D01*
X2506528Y366528D01*
X2498173Y372940D01*
X2488442Y376971D01*
X2478000Y378345D01*
X2394712D01*
X2369441Y403616D01*
X2369106Y404423D01*
X2362297Y413297D01*
X2353423Y420106D01*
X2343090Y424387D01*
X2337000Y425189D01*
Y383000D01*
X2327000D01*
Y425189D01*
X2320910Y424387D01*
X2310577Y420106D01*
X2301703Y413297D01*
X2294894Y404423D01*
X2293852Y401909D01*
X2256910Y364966D01*
X1925109D01*
Y504742D01*
X1930109Y505736D01*
X1933914Y496551D01*
X1941367Y486839D01*
X1951079Y479386D01*
X1962390Y474701D01*
X1974528Y473103D01*
X1986666Y474701D01*
X1997977Y479386D01*
X2004431Y484339D01*
X2006173Y485060D01*
X2014528Y491472D01*
X2172712Y649655D01*
X2297739D01*
X2298137Y649137D01*
X2308055Y641526D01*
X2319605Y636742D01*
X2332000Y635110D01*
X2344395Y636742D01*
X2355945Y641526D01*
X2365863Y649137D01*
X2373474Y659055D01*
X2378258Y670605D01*
X2378500Y672443D01*
X2399712Y693655D01*
X2466776D01*
X2471890Y691537D01*
X2483000Y690074D01*
X2494110Y691537D01*
X2504463Y695825D01*
X2513353Y702647D01*
X2520175Y711537D01*
X2524463Y721890D01*
X2525926Y733000D01*
X2524463Y744110D01*
X2523345Y746810D01*
Y799288D01*
X2549711Y825655D01*
X2611000D01*
X2621442Y827029D01*
X2622399Y827426D01*
X2632395Y828742D01*
X2643945Y833526D01*
X2653863Y841137D01*
X2661474Y851055D01*
X2666258Y862605D01*
X2667890Y875000D01*
X2666258Y887395D01*
X2661474Y898945D01*
X2653863Y908863D01*
X2643945Y916474D01*
X2632395Y921258D01*
X2620000Y922890D01*
X2607605Y921258D01*
X2596055Y916474D01*
X2586137Y908863D01*
X2584204Y906345D01*
X2533001D01*
X2533000Y906345D01*
X2522558Y904971D01*
X2512827Y900940D01*
X2504472Y894528D01*
X2504471Y894528D01*
X2454472Y844528D01*
X2448060Y836173D01*
X2444030Y826442D01*
X2442655Y816000D01*
X2442655Y815999D01*
Y774345D01*
X2383001D01*
X2383000Y774345D01*
X2372558Y772971D01*
X2362827Y768940D01*
X2354472Y762528D01*
X2322288Y730345D01*
X2156000D01*
X2145558Y728971D01*
X2135827Y724940D01*
X2127472Y718528D01*
X1975688Y566745D01*
X1974528Y566897D01*
X1962390Y565299D01*
X1951079Y560614D01*
X1941367Y553161D01*
X1933914Y543449D01*
X1929646Y533145D01*
X1926453Y532571D01*
X1924335Y532901D01*
X1921345Y540120D01*
Y686288D01*
X1991528Y756472D01*
X1997940Y764827D01*
X2001970Y774558D01*
X2003345Y785000D01*
Y1135655D01*
X2416999D01*
X2417000Y1135655D01*
X2427442Y1137030D01*
X2437173Y1141060D01*
X2445528Y1147472D01*
X2506000Y1207943D01*
X2511090Y1208613D01*
X2521423Y1212893D01*
X2530297Y1219703D01*
X2537106Y1228577D01*
X2538148Y1231091D01*
X2625528Y1318472D01*
X2631940Y1326827D01*
X2635970Y1336558D01*
X2637345Y1347000D01*
Y1899288D01*
X2697712Y1959655D01*
X2736000D01*
X2746442Y1961030D01*
X2756173Y1965060D01*
X2764528Y1971472D01*
X2770940Y1979827D01*
X2774970Y1989558D01*
X2776345Y2000000D01*
X2774970Y2010442D01*
X2770940Y2020173D01*
X2764528Y2028528D01*
X2756173Y2034940D01*
X2746442Y2038970D01*
X2736000Y2040345D01*
X2681000D01*
X2679861Y2040195D01*
X2601528Y2118528D01*
X2595701Y2123000D01*
X2597398Y2128000D01*
X2641968D01*
Y2237981D01*
X2492000D01*
Y2130345D01*
X2401711D01*
X2323528Y2208528D01*
X2315173Y2214940D01*
X2305442Y2218970D01*
X2295000Y2220345D01*
X2294999Y2220345D01*
X2178604D01*
X2176090Y2221387D01*
X2170000Y2222189D01*
Y2180000D01*
Y2137811D01*
X2176090Y2138613D01*
X2178604Y2139655D01*
X2278288D01*
X2356471Y2061472D01*
X2356472Y2061472D01*
X2364827Y2055060D01*
X2374558Y2051030D01*
X2385000Y2049655D01*
X2556288D01*
X2614943Y1991000D01*
X2568472Y1944528D01*
X2562060Y1936173D01*
X2558030Y1926442D01*
X2556655Y1916000D01*
X2556655Y1915999D01*
Y1363712D01*
X2482119Y1289176D01*
X2480558Y1288970D01*
X2470827Y1284940D01*
X2462472Y1278528D01*
X2400288Y1216345D01*
X2003345D01*
Y1292499D01*
X2008345Y1293494D01*
X2009150Y1291552D01*
X2016602Y1281839D01*
X2026315Y1274386D01*
X2037626Y1269701D01*
X2049764Y1268103D01*
X2061902Y1269701D01*
X2067860Y1272169D01*
X2262513D01*
X2262514Y1272169D01*
X2272956Y1273544D01*
X2282687Y1277574D01*
X2291043Y1283986D01*
X2510557Y1503500D01*
X2512395Y1503742D01*
X2523945Y1508526D01*
X2533863Y1516137D01*
X2541474Y1526055D01*
X2546258Y1537605D01*
X2547890Y1550000D01*
X2546258Y1562395D01*
X2541474Y1573945D01*
X2533863Y1583863D01*
X2523945Y1591474D01*
X2512395Y1596258D01*
X2500000Y1597890D01*
X2487605Y1596258D01*
X2476055Y1591474D01*
X2466137Y1583863D01*
X2458526Y1573945D01*
X2453742Y1562395D01*
X2453500Y1560556D01*
X2245803Y1352859D01*
X2087623D01*
Y1362181D01*
X2086248Y1372623D01*
X2082218Y1382353D01*
X2075806Y1390709D01*
X1970110Y1496406D01*
Y2275288D01*
X2134476Y2439655D01*
X2139584D01*
X2141055Y2438526D01*
X2152605Y2433742D01*
X2165000Y2432110D01*
X2177395Y2433742D01*
X2188945Y2438526D01*
X2196932Y2444655D01*
X2380000D01*
X2390442Y2446030D01*
X2400173Y2450060D01*
X2400624Y2450406D01*
X2406463Y2452825D01*
X2415353Y2459647D01*
X2422175Y2468537D01*
X2426463Y2478890D01*
X2427000Y2482965D01*
X2432000Y2482637D01*
Y2408000D01*
X2631952D01*
Y2517981D01*
X2432000D01*
Y2497363D01*
X2427000Y2497035D01*
X2426463Y2501110D01*
X2422175Y2511463D01*
X2415353Y2520353D01*
X2406463Y2527175D01*
X2396110Y2531463D01*
X2385000Y2532926D01*
X2373890Y2531463D01*
X2363537Y2527175D01*
X2361152Y2525345D01*
X2273935D01*
X2272021Y2529965D01*
X2311712Y2569655D01*
X2519999D01*
X2520000Y2569655D01*
X2530442Y2571030D01*
X2540173Y2575060D01*
X2548528Y2581472D01*
X2600557Y2633500D01*
X2602395Y2633742D01*
X2613945Y2638526D01*
X2623863Y2646137D01*
X2631474Y2656055D01*
X2636258Y2667605D01*
X2637890Y2680000D01*
X2636258Y2692395D01*
X2631474Y2703945D01*
X2623863Y2713863D01*
X2613945Y2721474D01*
X2602395Y2726258D01*
X2590000Y2727890D01*
X2577605Y2726258D01*
X2566055Y2721474D01*
X2556137Y2713863D01*
X2548526Y2703945D01*
X2543742Y2692395D01*
X2543500Y2690557D01*
X2503288Y2650345D01*
X2295001D01*
X2295000Y2650345D01*
X2284558Y2648970D01*
X2274827Y2644940D01*
X2266472Y2638528D01*
X2154443Y2526500D01*
X2152605Y2526258D01*
X2141055Y2521474D01*
X2139584Y2520345D01*
X2117765D01*
X2107322Y2518970D01*
X2097592Y2514940D01*
X2089236Y2508528D01*
X2089236Y2508528D01*
X1913053Y2332345D01*
X1799171D01*
X1796214Y2334615D01*
X1784903Y2339300D01*
X1772765Y2340898D01*
X1760627Y2339300D01*
X1749316Y2334615D01*
X1739604Y2327162D01*
X1732151Y2317449D01*
X1727883Y2307146D01*
X1724690Y2306571D01*
X1722572Y2306901D01*
X1719248Y2314927D01*
X1712596Y2323596D01*
X1703928Y2330247D01*
X1693833Y2334428D01*
X1688001Y2335196D01*
Y2294000D01*
X1678001D01*
Y2335196D01*
X1672168Y2334428D01*
X1662074Y2330247D01*
X1653406Y2323596D01*
X1646754Y2314927D01*
X1644733Y2310048D01*
X1639733Y2311042D01*
Y2340496D01*
X1633582D01*
Y2439763D01*
X1632207Y2450205D01*
X1630345Y2454701D01*
Y2513288D01*
X1970557Y2853500D01*
X1972395Y2853742D01*
X1983945Y2858526D01*
X1993863Y2866137D01*
X2001474Y2876055D01*
X2006258Y2887605D01*
X2007890Y2900000D01*
X2006258Y2912395D01*
X2001474Y2923945D01*
X1993863Y2933863D01*
X1983945Y2941474D01*
X1972395Y2946258D01*
X1960000Y2947890D01*
D02*
G37*
G36*
X2160000D02*
X2147605Y2946258D01*
X2136055Y2941474D01*
X2126137Y2933863D01*
X2118526Y2923945D01*
X2113742Y2912395D01*
X2112110Y2900000D01*
X2113742Y2887605D01*
X2118526Y2876055D01*
X2126137Y2866137D01*
X2136055Y2858526D01*
X2147605Y2853742D01*
X2160000Y2852110D01*
X2172395Y2853742D01*
X2183945Y2858526D01*
X2185416Y2859655D01*
X2769288D01*
X2858655Y2770289D01*
Y2475711D01*
X2810423Y2427480D01*
X2772520D01*
Y2332520D01*
X2867480D01*
Y2370423D01*
X2927528Y2430471D01*
X2927528Y2430472D01*
X2933940Y2438827D01*
X2937970Y2448558D01*
X2939345Y2459000D01*
X2939345Y2459001D01*
Y2787000D01*
X2937970Y2797442D01*
X2933940Y2807173D01*
X2927528Y2815528D01*
X2927528Y2815529D01*
X2814528Y2928528D01*
X2806173Y2934940D01*
X2796442Y2938970D01*
X2786000Y2940345D01*
X2785999Y2940345D01*
X2185416D01*
X2183945Y2941474D01*
X2172395Y2946258D01*
X2160000Y2947890D01*
D02*
G37*
G36*
Y2222189D02*
X2153910Y2221387D01*
X2143577Y2217106D01*
X2134703Y2210297D01*
X2127894Y2201423D01*
X2123613Y2191090D01*
X2122811Y2185000D01*
X2160000D01*
Y2222189D01*
D02*
G37*
G36*
Y2175000D02*
X2122811D01*
X2123613Y2168910D01*
X2127894Y2158577D01*
X2134703Y2149703D01*
X2143577Y2142894D01*
X2153910Y2138613D01*
X2160000Y2137811D01*
Y2175000D01*
D02*
G37*
G36*
X1350000Y1822890D02*
X1337605Y1821258D01*
X1326055Y1816474D01*
X1318068Y1810345D01*
X959599D01*
X957395Y1811258D01*
X945000Y1812890D01*
X932605Y1811258D01*
X921055Y1806474D01*
X911137Y1798863D01*
X903526Y1788945D01*
X898742Y1777395D01*
X897110Y1765000D01*
X898742Y1752605D01*
X903526Y1741055D01*
X904655Y1739584D01*
Y810001D01*
X904655Y810001D01*
X906029Y799558D01*
X910060Y789828D01*
X916472Y781472D01*
X1037979Y659965D01*
X1036066Y655345D01*
X405416D01*
X403945Y656474D01*
X392395Y661258D01*
X380000Y662890D01*
X367605Y661258D01*
X356055Y656474D01*
X346137Y648863D01*
X338526Y638945D01*
X333742Y627395D01*
X332110Y615000D01*
X333742Y602605D01*
X338526Y591055D01*
X346137Y581137D01*
X356055Y573526D01*
X367605Y568742D01*
X380000Y567110D01*
X392395Y568742D01*
X403945Y573526D01*
X405416Y574655D01*
X1113069D01*
X1121055Y568527D01*
X1132605Y563742D01*
X1145000Y562111D01*
X1157395Y563742D01*
X1168945Y568527D01*
X1178863Y576137D01*
X1186474Y586056D01*
X1191258Y597606D01*
X1192890Y610001D01*
X1191258Y622395D01*
X1186474Y633946D01*
X1178863Y643864D01*
X1168945Y651475D01*
X1157395Y656259D01*
X1155557Y656501D01*
X985345Y826712D01*
Y1729655D01*
X1335401D01*
X1337605Y1728742D01*
X1350000Y1727110D01*
X1362395Y1728742D01*
X1373945Y1733526D01*
X1383863Y1741137D01*
X1391474Y1751055D01*
X1396258Y1762605D01*
X1397890Y1775000D01*
X1396258Y1787395D01*
X1391474Y1798945D01*
X1383863Y1808863D01*
X1373945Y1816474D01*
X1362395Y1821258D01*
X1350000Y1822890D01*
D02*
G37*
G36*
X2790000Y2727890D02*
X2777605Y2726258D01*
X2766055Y2721474D01*
X2756137Y2713863D01*
X2748526Y2703945D01*
X2743742Y2692395D01*
X2743500Y2690557D01*
X2678472Y2625528D01*
X2672060Y2617173D01*
X2668030Y2607442D01*
X2666655Y2597000D01*
X2666655Y2596999D01*
Y2235859D01*
X2666655Y2235858D01*
X2668030Y2225416D01*
X2672060Y2215685D01*
X2678472Y2207329D01*
X2701142Y2184659D01*
X2701142Y2184659D01*
X2709498Y2178247D01*
X2719229Y2174217D01*
X2729671Y2172842D01*
X2729672Y2172842D01*
X2769328D01*
X2773617Y2168553D01*
X2773742Y2167605D01*
X2778526Y2156055D01*
X2786137Y2146137D01*
X2793314Y2140630D01*
X2856655Y2077289D01*
Y1850128D01*
X2857334Y1844973D01*
X2857074Y1843000D01*
X2858537Y1831890D01*
X2862825Y1821537D01*
X2869647Y1812647D01*
X2878537Y1805825D01*
X2888890Y1801536D01*
X2900000Y1800074D01*
X2911110Y1801536D01*
X2921463Y1805825D01*
X2930353Y1812647D01*
X2937175Y1821537D01*
X2941463Y1831890D01*
X2942926Y1843000D01*
X2941463Y1854110D01*
X2937345Y1864053D01*
Y2094000D01*
X2935970Y2104442D01*
X2931940Y2114173D01*
X2925528Y2122528D01*
X2925528Y2122529D01*
X2867865Y2180192D01*
X2866258Y2192395D01*
X2861474Y2203945D01*
X2853863Y2213863D01*
X2843945Y2221474D01*
X2832395Y2226258D01*
X2829666Y2226617D01*
X2814568Y2241715D01*
X2806213Y2248127D01*
X2796482Y2252158D01*
X2786040Y2253532D01*
X2786039Y2253532D01*
X2747345D01*
Y2580288D01*
X2800557Y2633500D01*
X2802395Y2633742D01*
X2813945Y2638526D01*
X2823863Y2646137D01*
X2831474Y2656055D01*
X2836258Y2667605D01*
X2837890Y2680000D01*
X2836258Y2692395D01*
X2831474Y2703945D01*
X2823863Y2713863D01*
X2813945Y2721474D01*
X2802395Y2726258D01*
X2790000Y2727890D01*
D02*
G37*
G36*
X2736000Y1742926D02*
X2724890Y1741464D01*
X2714537Y1737175D01*
X2705647Y1730353D01*
X2698825Y1721463D01*
X2694537Y1711110D01*
X2694201Y1708564D01*
X2693530Y1706942D01*
X2692155Y1696500D01*
Y1612893D01*
X2691825Y1612463D01*
X2687537Y1602110D01*
X2686074Y1591000D01*
X2687537Y1579890D01*
X2691825Y1569537D01*
X2698647Y1560647D01*
X2707537Y1553825D01*
X2717890Y1549536D01*
X2729000Y1548074D01*
X2740110Y1549536D01*
X2750463Y1553825D01*
X2759353Y1560647D01*
X2766175Y1569537D01*
X2770463Y1579890D01*
X2770799Y1582436D01*
X2771470Y1584058D01*
X2772845Y1594500D01*
Y1678107D01*
X2773175Y1678537D01*
X2777463Y1688890D01*
X2778926Y1700000D01*
X2777463Y1711110D01*
X2773175Y1721463D01*
X2766353Y1730353D01*
X2757463Y1737175D01*
X2747110Y1741464D01*
X2736000Y1742926D01*
D02*
G37*
G36*
X745000Y1812890D02*
X732605Y1811258D01*
X721055Y1806474D01*
X711137Y1798863D01*
X703526Y1788945D01*
X698742Y1777395D01*
X697110Y1765000D01*
X698742Y1752605D01*
X703526Y1741055D01*
X704655Y1739584D01*
Y1625405D01*
X600866Y1521616D01*
X593987Y1520710D01*
X581575Y1515569D01*
X570917Y1507390D01*
X562738Y1496732D01*
X557597Y1484320D01*
X555843Y1471000D01*
X557597Y1457680D01*
X562738Y1445268D01*
X570917Y1434610D01*
X581575Y1426431D01*
X593987Y1421290D01*
X607307Y1419536D01*
X620627Y1421290D01*
X633039Y1426431D01*
X643697Y1434610D01*
X651876Y1445268D01*
X657017Y1457680D01*
X657923Y1464559D01*
X773528Y1580165D01*
X779940Y1588520D01*
X783971Y1598251D01*
X785345Y1608693D01*
Y1739584D01*
X786474Y1741055D01*
X791258Y1752605D01*
X792890Y1765000D01*
X791258Y1777395D01*
X786474Y1788945D01*
X778863Y1798863D01*
X768945Y1806474D01*
X757395Y1811258D01*
X745000Y1812890D01*
D02*
G37*
G36*
X145197Y1799527D02*
X56142D01*
Y1765913D01*
X55060Y1764503D01*
X51029Y1754772D01*
X49655Y1744330D01*
Y1433954D01*
X46619Y1426624D01*
X45088Y1415000D01*
X46619Y1403376D01*
X51105Y1392544D01*
X58243Y1383243D01*
X67544Y1376105D01*
X78376Y1371619D01*
X90000Y1370088D01*
X101624Y1371619D01*
X112456Y1376105D01*
X121757Y1383243D01*
X128895Y1392544D01*
X133381Y1403376D01*
X134912Y1415000D01*
X133381Y1426624D01*
X130345Y1433954D01*
Y1710473D01*
X145197D01*
Y1799527D01*
D02*
G37*
G36*
X2900000Y1485926D02*
X2888890Y1484464D01*
X2878537Y1480175D01*
X2869647Y1473353D01*
X2862825Y1464463D01*
X2858537Y1454110D01*
X2857074Y1443000D01*
X2858537Y1431890D01*
X2860655Y1426776D01*
Y1381268D01*
X2860537Y1380982D01*
X2859074Y1369872D01*
X2860537Y1358762D01*
X2864825Y1348409D01*
X2871647Y1339519D01*
X2880537Y1332697D01*
X2890890Y1328409D01*
X2902000Y1326946D01*
X2913110Y1328409D01*
X2923463Y1332697D01*
X2932353Y1339519D01*
X2939175Y1348409D01*
X2943463Y1358762D01*
X2944926Y1369872D01*
X2943463Y1380982D01*
X2941345Y1386096D01*
Y1431604D01*
X2941463Y1431890D01*
X2942926Y1443000D01*
X2941463Y1454110D01*
X2937175Y1464463D01*
X2930353Y1473353D01*
X2921463Y1480175D01*
X2911110Y1484464D01*
X2900000Y1485926D01*
D02*
G37*
G36*
X559330Y1799912D02*
X547706Y1798381D01*
X536874Y1793895D01*
X527573Y1786757D01*
X520435Y1777456D01*
X517399Y1770126D01*
X437472Y1690198D01*
X431060Y1681843D01*
X427029Y1672112D01*
X425655Y1661670D01*
X425655Y1661669D01*
Y1462308D01*
X425655Y1462307D01*
X427029Y1451865D01*
X431060Y1442134D01*
X437472Y1433779D01*
X556691Y1314559D01*
X557597Y1307680D01*
X562738Y1295268D01*
X570917Y1284610D01*
X581575Y1276431D01*
X593987Y1271290D01*
X607307Y1269536D01*
X620627Y1271290D01*
X633039Y1276431D01*
X643697Y1284610D01*
X651876Y1295268D01*
X657017Y1307680D01*
X658771Y1321000D01*
X657017Y1334320D01*
X651876Y1346732D01*
X643697Y1357390D01*
X633039Y1365569D01*
X620627Y1370710D01*
X613748Y1371616D01*
X506345Y1479019D01*
Y1644958D01*
X574456Y1713069D01*
X581786Y1716105D01*
X591087Y1723243D01*
X598225Y1732544D01*
X602711Y1743376D01*
X604242Y1755000D01*
X602711Y1766624D01*
X598225Y1777456D01*
X591087Y1786757D01*
X581786Y1793895D01*
X570954Y1798381D01*
X559330Y1799912D01*
D02*
G37*
G36*
X134528Y1359527D02*
X45472D01*
Y1270473D01*
X77471D01*
X209472Y1138472D01*
X217827Y1132060D01*
X227558Y1128030D01*
X238000Y1126655D01*
X581283D01*
X581575Y1126431D01*
X593987Y1121290D01*
X607307Y1119536D01*
X620627Y1121290D01*
X633039Y1126431D01*
X643697Y1134610D01*
X651876Y1145268D01*
X657017Y1157680D01*
X658771Y1171000D01*
X657017Y1184320D01*
X651876Y1196732D01*
X643697Y1207390D01*
X633039Y1215569D01*
X620627Y1220710D01*
X607307Y1222464D01*
X593987Y1220710D01*
X581575Y1215569D01*
X570917Y1207390D01*
X570882Y1207345D01*
X254712D01*
X134528Y1327529D01*
Y1359527D01*
D02*
G37*
G36*
X612307Y1066763D02*
Y1026000D01*
X653069D01*
X652146Y1033015D01*
X647509Y1044210D01*
X640131Y1053824D01*
X630517Y1061201D01*
X619322Y1065839D01*
X612307Y1066763D01*
D02*
G37*
G36*
X653069Y1016000D02*
X612307D01*
Y975237D01*
X619322Y976161D01*
X630517Y980798D01*
X640131Y988176D01*
X647509Y997790D01*
X652146Y1008985D01*
X653069Y1016000D01*
D02*
G37*
G36*
X602307Y1066763D02*
X595292Y1065839D01*
X584443Y1061345D01*
X406000D01*
X395558Y1059970D01*
X385827Y1055940D01*
X377472Y1049528D01*
X377471Y1049528D01*
X176472Y848528D01*
X170060Y840173D01*
X166030Y830442D01*
X164655Y820000D01*
X164655Y819999D01*
Y485001D01*
X164655Y485000D01*
X166030Y474558D01*
X170060Y464827D01*
X176472Y456472D01*
X346472Y286472D01*
X354827Y280060D01*
X356839Y279227D01*
X358577Y277894D01*
X368910Y273613D01*
X375000Y272811D01*
Y315000D01*
X385000D01*
Y272811D01*
X391090Y273613D01*
X393604Y274655D01*
X1121282D01*
X1123577Y272894D01*
X1133910Y268614D01*
X1140000Y267812D01*
Y310001D01*
X1150000D01*
Y267812D01*
X1156090Y268614D01*
X1158603Y269655D01*
X1386394D01*
X1388910Y268613D01*
X1395000Y267811D01*
Y309999D01*
Y352188D01*
X1388910Y351386D01*
X1386397Y350345D01*
X1159195D01*
X1150443Y353971D01*
X1140001Y355345D01*
X393604D01*
X391090Y356387D01*
X390606Y356450D01*
X245345Y501712D01*
Y803288D01*
X422712Y980655D01*
X584443D01*
X595292Y976161D01*
X602307Y975237D01*
Y1021000D01*
Y1066763D01*
D02*
G37*
G36*
X2823948Y167981D02*
X2614000D01*
Y58000D01*
X2823948D01*
Y167981D01*
D02*
G37*
%LPD*%
G36*
X1007000Y2402655D02*
X1552892D01*
Y2340496D01*
X1546741D01*
Y2247504D01*
X1639733D01*
Y2247504D01*
X1644655Y2247316D01*
Y2194345D01*
X1004000D01*
X993558Y2192970D01*
X990119Y2191546D01*
X988910Y2191387D01*
X978577Y2187106D01*
X969703Y2180297D01*
X962894Y2171423D01*
X958613Y2161090D01*
X957811Y2155000D01*
X1000000D01*
Y2150000D01*
X1005000D01*
Y2107811D01*
X1011090Y2108613D01*
X1021423Y2112894D01*
X1022415Y2113655D01*
X1799655D01*
Y1458001D01*
X1799655Y1458000D01*
X1800912Y1448452D01*
X1798824Y1446757D01*
X1796411Y1445882D01*
X1763765Y1478528D01*
X1755409Y1484940D01*
X1745678Y1488970D01*
X1735236Y1490345D01*
X1735236Y1490345D01*
X1503935D01*
X1502021Y1494965D01*
X1578528Y1571471D01*
X1578528Y1571472D01*
X1584940Y1579827D01*
X1588970Y1589558D01*
X1590345Y1600000D01*
Y1749584D01*
X1591474Y1751055D01*
X1596258Y1762605D01*
X1597890Y1775000D01*
X1596258Y1787395D01*
X1591474Y1798945D01*
X1590345Y1800416D01*
Y1933999D01*
X1590345Y1934000D01*
X1588970Y1944442D01*
X1584940Y1954173D01*
X1578528Y1962528D01*
X1520528Y2020528D01*
X1512173Y2026940D01*
X1502442Y2030970D01*
X1492000Y2032345D01*
X1491999Y2032345D01*
X846712D01*
X846345Y2032712D01*
Y2249288D01*
X999264Y2402207D01*
X1000000Y2402110D01*
X1005569Y2402843D01*
X1007000Y2402655D01*
D02*
G37*
G36*
X1732151Y2270552D02*
X1739604Y2260839D01*
X1749316Y2253386D01*
X1760627Y2248701D01*
X1772765Y2247103D01*
X1784903Y2248701D01*
X1792034Y2251655D01*
X1889419D01*
Y1479695D01*
X1889419Y1479694D01*
X1890478Y1471650D01*
X1885743Y1469314D01*
X1880346Y1474711D01*
Y2154000D01*
X1878971Y2164442D01*
X1874941Y2174173D01*
X1868529Y2182528D01*
X1860173Y2188940D01*
X1850443Y2192970D01*
X1840001Y2194345D01*
X1725345D01*
Y2273916D01*
X1730345Y2274910D01*
X1732151Y2270552D01*
D02*
G37*
G36*
X1823740Y1304439D02*
Y1268504D01*
X1871915D01*
X1873828Y1263885D01*
X1800288Y1190345D01*
X1413604D01*
X1411090Y1191387D01*
X1405000Y1192189D01*
Y1150000D01*
Y1107811D01*
X1411090Y1108613D01*
X1413604Y1109655D01*
X1816999D01*
X1817000Y1109655D01*
X1827442Y1111030D01*
X1837173Y1115060D01*
X1845528Y1121472D01*
X1918035Y1193979D01*
X1922655Y1192065D01*
Y1181858D01*
Y801712D01*
X1852472Y731528D01*
X1846060Y723173D01*
X1842030Y713442D01*
X1840655Y703000D01*
X1840655Y702999D01*
Y566496D01*
X1805561D01*
X1733529Y638528D01*
X1725173Y644939D01*
X1715443Y648970D01*
X1705001Y650345D01*
X1705000Y650345D01*
X1425416D01*
X1423945Y651473D01*
X1412395Y656258D01*
X1410556Y656500D01*
X1260345Y806711D01*
Y1409655D01*
X1374584D01*
X1376055Y1408526D01*
X1387605Y1403742D01*
X1400000Y1402110D01*
X1412395Y1403742D01*
X1423945Y1408526D01*
X1425416Y1409655D01*
X1718525D01*
X1823740Y1304439D01*
D02*
G37*
%LPC*%
G36*
X995000Y2145000D02*
X957811D01*
X958613Y2138910D01*
X962894Y2128577D01*
X969703Y2119703D01*
X978577Y2112894D01*
X988910Y2108613D01*
X995000Y2107811D01*
Y2145000D01*
D02*
G37*
G36*
X1395000Y1192189D02*
X1388910Y1191387D01*
X1378577Y1187107D01*
X1369703Y1180297D01*
X1362893Y1171423D01*
X1358613Y1161090D01*
X1357811Y1155000D01*
X1395000D01*
Y1192189D01*
D02*
G37*
G36*
Y1145000D02*
X1357811D01*
X1358613Y1138910D01*
X1362893Y1128577D01*
X1369703Y1119703D01*
X1378577Y1112893D01*
X1388910Y1108613D01*
X1395000Y1107811D01*
Y1145000D01*
D02*
G37*
%LPD*%
D10*
X180000Y225000D02*
D03*
X2194000Y1772000D02*
D03*
X331000Y2648000D02*
D03*
D11*
X1145000Y310001D02*
D03*
Y610001D02*
D03*
X1400000Y309999D02*
D03*
Y609999D02*
D03*
X2805000Y297000D02*
D03*
X1960000Y2900000D02*
D03*
X2160000D02*
D03*
X2500000Y1250000D02*
D03*
Y1550000D02*
D03*
X1000000Y2150000D02*
D03*
Y2450000D02*
D03*
X2165000Y2180000D02*
D03*
Y2480000D02*
D03*
X2332000Y383000D02*
D03*
Y683000D02*
D03*
X2820000Y2180000D02*
D03*
X380000Y615000D02*
D03*
Y315000D02*
D03*
X745000Y1765000D02*
D03*
X945000D02*
D03*
X1550000Y1775000D02*
D03*
X1350000D02*
D03*
X2820000Y875000D02*
D03*
X2620000D02*
D03*
X2790000Y2680000D02*
D03*
X2590000D02*
D03*
X1400000Y1150000D02*
D03*
Y1450000D02*
D03*
D12*
X559330Y1755000D02*
D03*
X90000Y1415000D02*
D03*
D13*
X100670Y1755000D02*
D03*
D14*
X90000Y1315000D02*
D03*
D15*
X1772765Y2294000D02*
D03*
X1683001D02*
D03*
X2049764Y1315000D02*
D03*
X1960000D02*
D03*
X1974528Y520000D02*
D03*
X1884764D02*
D03*
D16*
X1593237Y2294000D02*
D03*
X1870236Y1315000D02*
D03*
X1795000Y520000D02*
D03*
D17*
X2805000Y497000D02*
D03*
X2820000Y2380000D02*
D03*
D18*
X2900000Y1843000D02*
D03*
Y1443000D02*
D03*
X2902000Y1069872D02*
D03*
Y1369872D02*
D03*
X2385000Y2490000D02*
D03*
Y2090000D02*
D03*
X2483000Y333000D02*
D03*
Y733000D02*
D03*
X2729000Y1591000D02*
D03*
Y1191000D02*
D03*
X2736000Y1700000D02*
D03*
Y2000000D02*
D03*
D19*
X607307Y1021000D02*
D03*
Y1171000D02*
D03*
Y1321000D02*
D03*
Y1471000D02*
D03*
D20*
X2900000Y1443000D02*
X2901000Y1442000D01*
X2895000Y1848128D02*
X2897000Y1850128D01*
X2774000Y281000D02*
X2798000Y305000D01*
X2810000D01*
X375000Y315000D02*
X380000D01*
X90000Y1744330D02*
X100670Y1755000D01*
X603307Y1167000D02*
X607307Y1171000D01*
X2901000Y1370872D02*
X2902000Y1369872D01*
X2820000Y2171000D02*
Y2180000D01*
X2819227D02*
X2820000D01*
X2672000Y1991000D02*
X2681000Y2000000D01*
X2729000Y1591000D02*
X2732500Y1594500D01*
Y1696500D02*
X2736000Y1700000D01*
X2612874Y882126D02*
X2620000Y875000D01*
X1400000Y309999D02*
X1414872D01*
X1429494Y324621D01*
X1140001Y315000D02*
X1145001Y310000D01*
X1140001Y615000D02*
X1145000Y610001D01*
X1772765Y2294000D02*
X1774765Y2292000D01*
X1590000Y2443000D02*
X1593237Y2439763D01*
X990000Y2450000D02*
X1000000D01*
X1881000Y523764D02*
X1884764Y520000D01*
X2491000Y1250000D02*
X2500000D01*
X1963000Y1181858D02*
X1968858Y1176000D01*
X1960000Y1315000D02*
X1963000Y1312000D01*
X2325000Y690000D02*
X2332000Y683000D01*
X1974528Y520000D02*
X1986000D01*
X2478000Y338000D02*
X2483000Y333000D01*
X2332000Y383000D02*
X2333000D01*
X2483000Y327000D02*
Y333000D01*
X2482000Y734000D02*
X2483000Y733000D01*
X2611000Y866000D02*
X2620000Y875000D01*
X1000000Y2150000D02*
X1004000Y2154000D01*
X1000000Y2450000D02*
X1007000Y2443000D01*
X1399999Y310000D02*
X1400000Y309999D01*
X945000Y1765000D02*
X950000Y1770000D01*
X1345000D02*
X1350000Y1775000D01*
X2165000Y2480000D02*
X2170000Y2485000D01*
X2380000D02*
X2385000Y2490000D01*
D21*
X1400000Y1150000D02*
X1817000D01*
X1915504Y1248504D01*
X1916230D01*
X1957514Y1312514D02*
X1960000Y1315000D01*
X1957514Y1289789D02*
Y1312514D01*
X1916230Y1248504D02*
X1957514Y1289789D01*
X1963000Y1181858D02*
Y1312000D01*
X1957514Y1317486D02*
X1960000Y1315000D01*
X1840001Y1458000D02*
Y2154000D01*
X1957514Y1317486D02*
Y1340486D01*
X1840001Y1458000D02*
X1957514Y1340486D01*
X1929765Y1479694D02*
X2047278Y1362181D01*
X1929765Y1479694D02*
Y2292000D01*
X2047278Y1317486D02*
Y1362181D01*
Y1317486D02*
X2052250Y1312514D01*
X2902000Y1075000D02*
X2950000Y1027000D01*
X2052250Y1312514D02*
X2262514D01*
X2500000Y1550000D01*
X2805000Y497000D02*
X2812480Y504480D01*
Y526250D01*
X2820000Y533770D01*
Y875000D01*
Y1100000D01*
X90000Y1415000D02*
Y1744330D01*
X238000Y1167000D02*
X603307D01*
X90000Y1315000D02*
X238000Y1167000D01*
X2901000Y1370872D02*
Y1442000D01*
X2897000Y1850128D02*
Y2094000D01*
X2820000Y2171000D02*
X2897000Y2094000D01*
X2707000Y2235858D02*
Y2597000D01*
X2786040Y2213187D02*
X2819227Y2180000D01*
X2729671Y2213187D02*
X2786040D01*
X2707000Y2235858D02*
X2729671Y2213187D01*
X2707000Y2597000D02*
X2790000Y2680000D01*
X2681000Y2000000D02*
X2736000D01*
X2732500Y1594500D02*
Y1696500D01*
X2950000Y445000D02*
Y1027000D01*
X2729000Y1191000D02*
X2820000Y1100000D01*
X1590000Y2530000D02*
X1960000Y2900000D01*
X1590000Y2443000D02*
Y2530000D01*
X1929765Y2292000D02*
X2117765Y2480000D01*
X2165000D01*
X466000Y1661670D02*
X559330Y1755000D01*
X466000Y1462307D02*
X607307Y1321000D01*
X466000Y1462307D02*
Y1661670D01*
X1429494Y324621D02*
X1884764D01*
X380000Y315000D02*
X1140001D01*
X380000Y615000D02*
X1140001D01*
X205000Y485000D02*
Y820000D01*
X406000Y1021000D02*
X607307D01*
X205000Y820000D02*
X406000Y1021000D01*
X607307Y1471000D02*
X745000Y1608693D01*
Y1765000D01*
X1774765Y2292000D02*
X1929765D01*
X1593237Y2294000D02*
Y2439763D01*
X1007000Y2443000D02*
X1590000D01*
X1685000Y2154000D02*
X1840001D01*
X1004000D02*
X1685000D01*
Y2292001D01*
X806000Y2266000D02*
X990000Y2450000D01*
X2500000Y1250000D02*
X2597000Y1347000D01*
Y1916000D02*
X2672000Y1991000D01*
X2597000Y1347000D02*
Y1916000D01*
X2573000Y2090000D02*
X2672000Y1991000D01*
X1881000Y523764D02*
Y703000D01*
X1963000Y785000D01*
Y1181858D01*
X2417000Y1176000D02*
X2491000Y1250000D01*
X1968858Y1176000D02*
X2417000D01*
X2273621Y324621D02*
X2332000Y383000D01*
X1884764Y324621D02*
X2273621D01*
X1884764D02*
Y520000D01*
X2156000Y690000D02*
X2325000D01*
X1986000Y520000D02*
X2156000Y690000D01*
X2378000Y338000D02*
X2478000D01*
X2333000Y383000D02*
X2378000Y338000D01*
X2529000Y281000D02*
X2774000D01*
X2483000Y327000D02*
X2529000Y281000D01*
X2383000Y734000D02*
X2482000D01*
X2332000Y683000D02*
X2383000Y734000D01*
X2483000Y733000D02*
Y816000D01*
X2533000Y866000D01*
X2611000D01*
X806000Y2016000D02*
Y2266000D01*
X830000Y1992000D02*
X1492000D01*
X806000Y2016000D02*
X830000Y1992000D01*
X1550000Y1775000D02*
Y1934000D01*
X1492000Y1992000D02*
X1550000Y1934000D01*
X1705001Y609999D02*
X1795000Y520000D01*
X1400000Y609999D02*
X1705001D01*
X1145001Y310000D02*
X1399999D01*
X1220000Y789999D02*
X1400000Y609999D01*
X1220000Y789999D02*
Y1430000D01*
X1240000Y1450000D02*
X1400000D01*
X1220000Y1430000D02*
X1240000Y1450000D01*
X1400000D02*
X1735236D01*
X1870236Y1315000D01*
X1550000Y1600000D02*
Y1775000D01*
X1400000Y1450000D02*
X1550000Y1600000D01*
X2786000Y2900000D02*
X2899000Y2787000D01*
Y2459000D02*
Y2787000D01*
X2820000Y2380000D02*
X2899000Y2459000D01*
X2160000Y2900000D02*
X2786000D01*
X205000Y485000D02*
X375000Y315000D01*
X2810000Y305000D02*
X2950000Y445000D01*
X2385000Y2090000D02*
X2573000D01*
X950000Y1770000D02*
X1345000D01*
X945000Y810001D02*
X1142500Y612500D01*
X945000Y810001D02*
Y1765000D01*
X2170000Y2485000D02*
X2295000Y2610000D01*
X2170000Y2485000D02*
X2380000D01*
X2165000Y2180000D02*
X2295000D01*
X2385000Y2090000D01*
X2295000Y2610000D02*
X2520000D01*
X2590000Y2680000D01*
D22*
X2556987Y2212981D02*
X2517000D01*
Y2182990D01*
X2536994Y2192987D01*
X2546990D01*
X2556987Y2182990D01*
Y2162997D01*
X2546990Y2153000D01*
X2526997D01*
X2517000Y2162997D01*
X2576981Y2212981D02*
Y2172994D01*
X2596974Y2153000D01*
X2616968Y2172994D01*
Y2212981D01*
X2457000Y2433000D02*
X2476994D01*
X2466997D01*
Y2492981D01*
X2457000Y2482984D01*
X2506984Y2492981D02*
X2546971D01*
Y2482984D01*
X2506984Y2442997D01*
Y2433000D01*
X2566964Y2492981D02*
Y2452994D01*
X2586958Y2433000D01*
X2606952Y2452994D01*
Y2492981D01*
X2557000Y708984D02*
X2566997Y718981D01*
X2586990D01*
X2596987Y708984D01*
Y698987D01*
X2586990Y688990D01*
X2576994D01*
X2586990D01*
X2596987Y678994D01*
Y668997D01*
X2586990Y659000D01*
X2566997D01*
X2557000Y668997D01*
X2616981Y659000D02*
Y668997D01*
X2626977D01*
Y659000D01*
X2616981D01*
X2666964Y708984D02*
X2676961Y718981D01*
X2696955D01*
X2706952Y708984D01*
Y698987D01*
X2696955Y688990D01*
X2686958D01*
X2696955D01*
X2706952Y678994D01*
Y668997D01*
X2696955Y659000D01*
X2676961D01*
X2666964Y668997D01*
X2726945Y718981D02*
Y678994D01*
X2746939Y659000D01*
X2766932Y678994D01*
Y718981D01*
X2678987Y132984D02*
X2668990Y142981D01*
X2648997D01*
X2639000Y132984D01*
Y92997D01*
X2648997Y83000D01*
X2668990D01*
X2678987Y92997D01*
Y112990D01*
X2658994D01*
X2698981Y83000D02*
Y142981D01*
X2738968Y83000D01*
Y142981D01*
X2758961D02*
Y83000D01*
X2788952D01*
X2798948Y92997D01*
Y132984D01*
X2788952Y142981D01*
X2758961D01*
%TF.MD5,46aebb5d496759c79d1356150c81a53e*%
M02*
