%TF.GenerationSoftware,Altium Limited,Altium Designer,20.1.11 (218)*%
G04 Layer_Color=0*
%FSLAX26Y26*%
%MOIN*%
%TF.SameCoordinates,1DCD3DB5-9A7A-439C-B071-390915EAFCA4*%
%TF.FilePolarity,Positive*%
%TF.FileFunction,Plated,1,2,PTH,Drill*%
%TF.Part,Single*%
G01*
G75*
%TA.AperFunction,OtherDrill,Pad Free-3 (180mil,225mil)*%
%ADD23C,0.177165*%
%TA.AperFunction,OtherDrill,Pad Free-4 (2194mil,1772mil)*%
%ADD24C,0.177165*%
%TA.AperFunction,OtherDrill,Pad Free-2 (331mil,2648mil)*%
%ADD25C,0.177165*%
%TA.AperFunction,ComponentDrill*%
%ADD26C,0.039370*%
%ADD27C,0.039370*%
%ADD28C,0.039370*%
%ADD29C,0.051000*%
%ADD30C,0.039370*%
%ADD31C,0.048032*%
D23*
X180000Y225000D02*
D03*
D24*
X2194000Y1772000D02*
D03*
D25*
X331000Y2648000D02*
D03*
D26*
X1145000Y310001D02*
D03*
Y610001D02*
D03*
X1400000Y309999D02*
D03*
Y609999D02*
D03*
X2500000Y1250000D02*
D03*
Y1550000D02*
D03*
X1000000Y2150000D02*
D03*
Y2450000D02*
D03*
X2165000Y2180000D02*
D03*
Y2480000D02*
D03*
X2332000Y383000D02*
D03*
Y683000D02*
D03*
X380000Y615000D02*
D03*
Y315000D02*
D03*
X1400000Y1150000D02*
D03*
Y1450000D02*
D03*
D27*
X559330Y1755000D02*
D03*
X100670D02*
D03*
X1772765Y2294000D02*
D03*
X1683001D02*
D03*
X1593237D02*
D03*
X2049764Y1315000D02*
D03*
X1960000D02*
D03*
X1870236D02*
D03*
X1974528Y520000D02*
D03*
X1884764D02*
D03*
X1795000D02*
D03*
D28*
X90000Y1315000D02*
D03*
Y1415000D02*
D03*
X2900000Y1843000D02*
D03*
Y1443000D02*
D03*
X2902000Y1069872D02*
D03*
Y1369872D02*
D03*
X2385000Y2490000D02*
D03*
Y2090000D02*
D03*
X2483000Y333000D02*
D03*
Y733000D02*
D03*
X2729000Y1591000D02*
D03*
Y1191000D02*
D03*
X2736000Y1700000D02*
D03*
Y2000000D02*
D03*
D29*
X2805000Y297000D02*
D03*
Y497000D02*
D03*
X2820000Y2380000D02*
D03*
Y2180000D02*
D03*
D30*
X1960000Y2900000D02*
D03*
X2160000D02*
D03*
X745000Y1765000D02*
D03*
X945000D02*
D03*
X1550000Y1775000D02*
D03*
X1350000D02*
D03*
X2820000Y875000D02*
D03*
X2620000D02*
D03*
X2790000Y2680000D02*
D03*
X2590000D02*
D03*
D31*
X607307Y1021000D02*
D03*
Y1171000D02*
D03*
Y1321000D02*
D03*
Y1471000D02*
D03*
%TF.MD5,dca74dc5cf5f6518d1733dd0ab171525*%
M02*
