%TF.GenerationSoftware,Altium Limited,Altium Designer,20.1.11 (218)*%
G04 Layer_Color=255*
%FSLAX26Y26*%
%MOIN*%
%TF.SameCoordinates,1DCD3DB5-9A7A-439C-B071-390915EAFCA4*%
%TF.FilePolarity,Positive*%
%TF.FileFunction,Pads,Bot*%
%TF.Part,Single*%
G01*
G75*
%TA.AperFunction,ViaPad*%
%ADD10C,0.060000*%
%TA.AperFunction,ComponentPad*%
%ADD11C,0.064961*%
%ADD12C,0.059055*%
%ADD13R,0.059055X0.059055*%
%ADD14R,0.059055X0.059055*%
%ADD15C,0.062992*%
%ADD16R,0.062992X0.062992*%
%ADD17R,0.064961X0.064961*%
%ADD18C,0.055118*%
%ADD19C,0.072047*%
D10*
X180000Y225000D02*
D03*
X2194000Y1772000D02*
D03*
X331000Y2648000D02*
D03*
D11*
X1145000Y310001D02*
D03*
Y610001D02*
D03*
X1400000Y309999D02*
D03*
Y609999D02*
D03*
X2805000Y297000D02*
D03*
X1960000Y2900000D02*
D03*
X2160000D02*
D03*
X2500000Y1250000D02*
D03*
Y1550000D02*
D03*
X1000000Y2150000D02*
D03*
Y2450000D02*
D03*
X2165000Y2180000D02*
D03*
Y2480000D02*
D03*
X2332000Y383000D02*
D03*
Y683000D02*
D03*
X2820000Y2180000D02*
D03*
X380000Y615000D02*
D03*
Y315000D02*
D03*
X745000Y1765000D02*
D03*
X945000D02*
D03*
X1550000Y1775000D02*
D03*
X1350000D02*
D03*
X2820000Y875000D02*
D03*
X2620000D02*
D03*
X2790000Y2680000D02*
D03*
X2590000D02*
D03*
X1400000Y1150000D02*
D03*
Y1450000D02*
D03*
D12*
X559330Y1755000D02*
D03*
X90000Y1415000D02*
D03*
D13*
X100670Y1755000D02*
D03*
D14*
X90000Y1315000D02*
D03*
D15*
X1772765Y2294000D02*
D03*
X1683001D02*
D03*
X2049764Y1315000D02*
D03*
X1960000D02*
D03*
X1974528Y520000D02*
D03*
X1884764D02*
D03*
D16*
X1593237Y2294000D02*
D03*
X1870236Y1315000D02*
D03*
X1795000Y520000D02*
D03*
D17*
X2805000Y497000D02*
D03*
X2820000Y2380000D02*
D03*
D18*
X2900000Y1843000D02*
D03*
Y1443000D02*
D03*
X2902000Y1069872D02*
D03*
Y1369872D02*
D03*
X2385000Y2490000D02*
D03*
Y2090000D02*
D03*
X2483000Y333000D02*
D03*
Y733000D02*
D03*
X2729000Y1591000D02*
D03*
Y1191000D02*
D03*
X2736000Y1700000D02*
D03*
Y2000000D02*
D03*
D19*
X607307Y1021000D02*
D03*
Y1171000D02*
D03*
Y1321000D02*
D03*
Y1471000D02*
D03*
%TF.MD5,808194a782b44f7d4707d6947f271700*%
M02*
